<svg width="48" height="46" viewBox="0 0 48 46" fill="none" xmlns="http://www.w3.org/2000/svg">
<path d="M44.7146 0.303467H26.4732C24.6618 0.303467 23.1879 1.77806 23.1879 3.59062V9.10688H4.42987C1.98722 9.10688 0 11.0953 0 13.5395V38.5594C0 41.0035 1.98722 42.992 4.42987 42.992H13.7255L16.2685 45.4351C16.4499 45.6094 16.6839 45.6966 16.918 45.6966C17.152 45.6966 17.3861 45.6094 17.5675 45.4351L20.1107 42.992H29.4063C31.8489 42.992 33.8362 41.0035 33.8362 38.5594V20.3341H38.7407L41.496 22.2656C41.6556 22.3775 41.8438 22.4355 42.0342 22.4355C42.1269 22.4355 42.2202 22.4217 42.311 22.3937C42.5878 22.3081 42.8095 22.0993 42.9115 21.8281L43.4736 20.3341H44.7145C46.5261 20.3341 47.9999 18.8595 47.9999 17.0469V3.59062C48 1.77806 46.5262 0.303467 44.7146 0.303467ZM31.9612 38.5594C31.9612 39.9696 30.815 41.117 29.4063 41.117H19.7333C19.4912 41.117 19.2585 41.2107 19.0838 41.3784L16.918 43.459L14.7523 41.3784C14.5778 41.2107 14.345 41.117 14.1028 41.117H4.42987C3.02119 41.117 1.875 39.9697 1.875 38.5594V13.5395C1.875 12.1292 3.02109 10.9819 4.42987 10.9819H29.4063C30.815 10.9819 31.9612 12.1292 31.9612 13.5395V38.5594ZM46.125 17.0469C46.125 17.8256 45.4923 18.4591 44.7146 18.4591H42.8247C42.4343 18.4591 42.0847 18.7011 41.9473 19.0665L41.5823 20.0363L39.5748 18.629C39.4171 18.5184 39.2291 18.4591 39.0367 18.4591H33.8362V13.5394C33.8362 11.0952 31.8489 9.10678 29.4063 9.10678H25.0629V3.59053C25.0629 2.81184 25.6956 2.17837 26.4732 2.17837H44.7146C45.4923 2.17837 46.125 2.81184 46.125 3.59053V17.0469Z" fill="url(#paint0_linear_201_1187)"/>
<path d="M14.6172 25.848C15.135 25.848 15.5547 25.4283 15.5547 24.9105V22.8962C15.5547 22.3785 15.135 21.9587 14.6172 21.9587C14.0994 21.9587 13.6797 22.3785 13.6797 22.8962V24.9105C13.6797 25.4283 14.0994 25.848 14.6172 25.848Z" fill="url(#paint1_linear_201_1187)"/>
<path d="M19.4658 25.848C19.9836 25.848 20.4033 25.4283 20.4033 24.9105V22.8962C20.4033 22.3785 19.9836 21.9587 19.4658 21.9587C18.948 21.9587 18.5283 22.3785 18.5283 22.8962V24.9105C18.5283 25.4283 18.9481 25.848 19.4658 25.848Z" fill="url(#paint2_linear_201_1187)"/>
<path d="M19.9008 28.7791C19.1037 29.5765 18.0439 30.0156 16.9166 30.0156C15.7894 30.0156 14.7296 29.5765 13.9325 28.7791C13.5664 28.4128 12.9728 28.4128 12.6067 28.7789C12.2405 29.145 12.2404 29.7386 12.6065 30.1048C13.7578 31.2564 15.2885 31.8906 16.9167 31.8906C18.5449 31.8906 20.0756 31.2564 21.2269 30.1048C21.5929 29.7386 21.5928 29.145 21.2267 28.7789C20.8605 28.4128 20.2669 28.4129 19.9008 28.7791Z" fill="url(#paint3_linear_201_1187)"/>
<defs>
<linearGradient id="paint0_linear_201_1187" x1="0" y1="0.303467" x2="47.9981" y2="0.303467" gradientUnits="userSpaceOnUse">
<stop stop-color="#1B375E"/>
<stop offset="1" stop-color="#06638D"/>
</linearGradient>
<linearGradient id="paint1_linear_201_1187" x1="13.6797" y1="21.9587" x2="15.5546" y2="21.9587" gradientUnits="userSpaceOnUse">
<stop stop-color="#1B375E"/>
<stop offset="1" stop-color="#06638D"/>
</linearGradient>
<linearGradient id="paint2_linear_201_1187" x1="18.5283" y1="21.9587" x2="20.4032" y2="21.9587" gradientUnits="userSpaceOnUse">
<stop stop-color="#1B375E"/>
<stop offset="1" stop-color="#06638D"/>
</linearGradient>
<linearGradient id="paint3_linear_201_1187" x1="12.332" y1="28.5044" x2="21.5009" y2="28.5044" gradientUnits="userSpaceOnUse">
<stop stop-color="#1B375E"/>
<stop offset="1" stop-color="#06638D"/>
</linearGradient>
</defs>
</svg>
