<svg width="49" height="48" viewBox="0 0 49 48" fill="none" xmlns="http://www.w3.org/2000/svg">
<g clip-path="url(#clip0_201_1204)">
<path d="M48.6487 7.61189C48.6487 6.9172 48.353 6.25233 47.8161 5.73961C47.1684 5.12123 46.2284 4.77708 45.3006 4.82058C43.8478 4.88779 42.6602 5.91276 42.3219 7.2772C42.041 7.1887 41.7472 7.1377 41.4497 7.12767C41.4476 7.12767 41.3586 7.12589 41.3424 7.12589C39.5616 7.12589 38.1127 8.55876 38.1127 10.32V19.5465L31.5065 25.9545C30.4888 26.9418 29.905 28.3213 29.905 29.7391V32.4376C29.905 33.9395 30.3548 35.3875 31.2058 36.625L31.7978 37.4861V44.5313C31.7978 45.0491 32.2177 45.4688 32.7353 45.4688H40.4697C40.9874 45.4688 41.4072 45.0491 41.4072 44.5313V38.4957L46.867 33.9461C48.0134 32.9909 48.6696 31.5873 48.6672 30.0955C48.6585 24.1866 48.6487 10.0155 48.6487 7.61189ZM41.3371 9.00089L41.3967 9.00192C41.7012 9.01345 41.985 9.12098 42.2178 9.31317C42.2201 9.31514 42.2227 9.31701 42.225 9.31898V18.6573C41.5172 18.3311 40.7289 18.2565 39.9877 18.4269V10.32C39.9877 9.59273 40.5953 9.00089 41.3371 9.00089ZM45.6668 32.5057L39.8696 37.3364C39.6559 37.5145 39.5322 37.7784 39.5322 38.0566V43.5938H33.6728V37.1949C33.6728 37.0052 33.6154 36.82 33.5078 36.6637L32.7508 35.5627C32.1157 34.6391 31.78 33.5585 31.78 32.4377V29.7392C31.78 28.8255 32.1562 27.9366 32.812 27.3004L39.6211 20.6955C39.6244 20.6922 39.6277 20.689 39.6309 20.6857C40.1977 20.1193 41.1286 20.0639 41.7598 20.5556C41.7982 20.5898 41.8822 20.6645 41.918 20.6966C42.1446 20.9272 42.2905 21.215 42.3404 21.5302C42.4177 22.0179 42.2598 22.4997 41.9072 22.8521C41.9029 22.8564 41.8986 22.8607 41.8943 22.8651L35.8564 29.1406C35.4974 29.5138 35.5088 30.1073 35.8819 30.4663C36.2549 30.8252 36.8486 30.8139 37.2075 30.4407L43.2397 24.1711C44.0055 23.4013 44.3616 22.3051 44.1923 21.2369C44.17 21.0958 44.1392 20.9572 44.1 20.8216V8.07501C44.1 7.3462 44.6775 6.72651 45.3874 6.69361C45.7994 6.67411 46.2454 6.83236 46.5213 7.09579C46.6887 7.25573 46.7737 7.42936 46.7737 7.61189C46.7737 10.0158 46.7835 24.1887 46.7923 30.0982C46.7937 31.031 46.3836 31.9084 45.6668 32.5057Z" fill="url(#paint0_linear_201_1204)"/>
<path d="M17.8276 25.9546L11.2214 19.5465V10.3201C11.2214 8.55885 9.7725 7.12598 7.99163 7.12598C7.9755 7.12598 7.88654 7.12776 7.88044 7.12794C7.58475 7.13788 7.29235 7.18879 7.01213 7.2771C6.67369 5.91276 5.48616 4.88797 4.0335 4.82066C3.10453 4.7766 2.16572 5.12122 1.518 5.73969C0.981098 6.25232 0.68541 6.91729 0.68541 7.61197C0.68541 10.0155 0.675566 24.1866 0.666754 30.0955C0.664504 31.5874 1.32066 32.9909 2.46694 33.9462L7.92675 38.4958V44.5313C7.92675 45.0491 8.34657 45.4688 8.86425 45.4688H16.5986C17.1163 45.4688 17.5361 45.0491 17.5361 44.5313V37.4861L18.1282 36.625C18.9791 35.3875 19.4289 33.9395 19.4289 32.4376V29.7391C19.429 28.3214 18.8453 26.9419 17.8276 25.9546ZM7.93782 9.00191L7.99163 9.00088C8.73872 9.00088 9.34641 9.59263 9.34641 10.32V18.4268C8.60522 18.2565 7.81688 18.3311 7.10916 18.6573V9.31898C7.1116 9.31701 7.11403 9.31513 7.11638 9.31316C7.34916 9.12098 7.63313 9.01344 7.93782 9.00191ZM17.554 32.4377C17.554 33.5585 17.2183 34.6391 16.5833 35.5627L15.8262 36.6637C15.7188 36.82 15.6612 37.0052 15.6612 37.1949V43.5938H9.80185V38.0565C9.80185 37.7783 9.67829 37.5145 9.46444 37.3363L3.66722 32.5056C2.9505 31.9083 2.54035 31.0309 2.54175 30.0981C2.55057 24.1886 2.56041 10.0157 2.56041 7.61179C2.56041 7.42926 2.64535 7.25563 2.81279 7.09569C3.08869 6.83226 3.53475 6.67401 3.94669 6.69351C4.65657 6.72641 5.23407 7.34601 5.23407 8.07491V20.8216C5.19488 20.9571 5.16404 21.0957 5.14172 21.2369C4.9725 22.3052 5.32857 23.4013 6.09432 24.1711L12.1266 30.4407C12.4854 30.8138 13.0791 30.8253 13.4522 30.4663C13.8252 30.1073 13.8368 29.5138 13.4777 29.1406L7.43972 22.8651C7.4355 22.8607 7.43119 22.8564 7.42688 22.8521C7.07429 22.4997 6.91641 22.0179 6.99366 21.53C7.04344 21.2157 7.18885 20.9284 7.41638 20.6963C7.45229 20.664 7.53582 20.5896 7.57425 20.5555C8.20519 20.0637 9.13622 20.1192 9.70313 20.6856C9.70632 20.6889 9.70969 20.6922 9.71297 20.6954L16.522 27.3003C17.1779 27.9365 17.554 28.8254 17.554 29.7391V32.4377Z" fill="url(#paint1_linear_201_1204)"/>
<path d="M29.2269 2.53125C27.2346 2.53125 25.7423 3.42891 24.715 4.58831C24.6977 4.60575 24.6819 4.62403 24.6662 4.64287C23.6359 3.45722 22.1278 2.53125 20.1048 2.53125C16.5005 2.53125 13.7051 5.53172 13.7051 9.38391C13.7051 14.0884 17.9349 15.8827 23.452 20.7345C23.8198 21.0312 24.2245 21.1793 24.6661 21.1793C24.6818 21.1793 24.6991 21.1792 24.7149 21.1777C25.1377 21.1681 25.5252 21.0201 25.8796 20.7345C31.3967 15.8826 35.6266 14.0884 35.6266 9.38391C35.6267 5.53172 32.8312 2.53125 29.2269 2.53125Z" fill="#00A3D9"/>
</g>
<defs>
<linearGradient id="paint0_linear_201_1204" x1="29.905" y1="4.81689" x2="48.6665" y2="4.81689" gradientUnits="userSpaceOnUse">
<stop stop-color="#1B375E"/>
<stop offset="1" stop-color="#06638D"/>
</linearGradient>
<linearGradient id="paint1_linear_201_1204" x1="0.666748" y1="4.81689" x2="19.4282" y2="4.81689" gradientUnits="userSpaceOnUse">
<stop stop-color="#1B375E"/>
<stop offset="1" stop-color="#06638D"/>
</linearGradient>
<clipPath id="clip0_201_1204">
<rect width="48" height="48" fill="white" transform="translate(0.666748)"/>
</clipPath>
</defs>
</svg>
