<svg width="49" height="48" viewBox="0 0 49 48" fill="none" xmlns="http://www.w3.org/2000/svg">
<g clip-path="url(#clip0_201_1196)">
<path d="M40.7118 12.8897C40.5208 12.5285 40.1178 12.333 39.7158 12.4057C39.3138 12.4787 39.0053 12.8036 38.9534 13.2088C38.6889 15.2686 37.8373 17.1805 36.5081 18.7479C36.1385 15.0748 34.8132 11.5165 32.6204 8.34981C30.137 4.76387 26.7243 1.906 22.7509 0.0852786C22.372 -0.0884401 21.9235 0.00905988 21.6509 0.32481C21.3783 0.640372 21.3469 1.09815 21.574 1.44793C22.4921 2.86244 22.9774 4.50606 22.9774 6.20115C22.9774 9.41537 21.2442 12.3309 18.4371 13.87C16.8977 9.94844 13.7717 7.22547 9.89762 6.49609C9.6234 6.44415 9.34046 6.51765 9.12578 6.69578C8.911 6.87381 8.78668 7.13837 8.78668 7.41737C8.78668 14.0013 7.43078 17.0123 6.23453 19.6688C5.22278 21.9156 4.26709 24.0378 4.26709 27.7138C4.26709 33.0802 6.35603 38.1557 10.1492 42.0051C13.9583 45.871 19.0007 48.0001 24.3472 48.0001C29.7036 48.0001 34.7395 45.9141 38.527 42.1266C42.3146 38.3391 44.4004 33.3033 44.4004 27.9468C44.4004 22.355 43.2629 17.7113 40.7118 12.8897ZM6.142 27.7137C6.142 24.4405 6.97712 22.586 7.94415 20.4386C9.14293 17.7766 10.4922 14.7809 10.647 8.61372C13.4789 9.50997 15.6643 11.7102 16.7943 14.8234C15.9724 15.3976 15.2375 16.0862 14.5987 16.8817C14.2745 17.2855 14.339 17.8756 14.7428 18.1997C15.1466 18.5239 15.7367 18.4594 16.0607 18.0557C16.7107 17.2461 17.5165 16.5503 18.3934 16.0215C18.3707 16.0365 18.4177 16.0083 18.3934 16.0215C18.5961 15.9019 18.8479 15.7648 19.0616 15.6606C19.056 15.6634 19.0672 15.6579 19.0616 15.6606C22.6283 13.8335 24.8525 10.2062 24.8525 6.20115C24.8525 5.1325 24.6934 4.08015 24.3843 3.07487C30.2684 6.67281 34.1201 12.6958 34.6711 19.2462C32.0971 19.7638 29.1797 22.8009 27.9281 25.4498C26.4414 24.4968 25.537 22.8615 25.537 21.0701C25.537 20.0611 25.8257 19.083 26.372 18.2413C26.5991 17.8915 26.5677 17.4337 26.2952 17.1182C26.0225 16.8025 25.5742 16.7049 25.1951 16.8786C22.6186 18.0593 20.4054 19.9125 18.7951 22.238C17.5397 24.051 16.7221 26.0619 16.3812 28.1483C15.8608 27.347 15.5231 26.4363 15.3992 25.472C15.3472 25.0667 15.0388 24.7419 14.6368 24.669C14.235 24.5961 13.8318 24.7921 13.6408 25.153C11.9949 28.2638 11.261 31.2591 11.261 34.8653C11.261 37.8678 12.2798 40.6366 13.989 42.8453C9.25075 39.5178 6.142 33.9765 6.142 27.7137ZM24.3252 46.0548C18.1554 46.0548 13.1358 41.0352 13.1358 34.8653C13.1358 32.4042 13.4893 30.3183 14.2862 28.2404C14.8113 29.3355 15.5771 30.3125 16.5448 31.1025C16.8254 31.3312 17.2126 31.3783 17.5396 31.2231C17.8666 31.068 18.0751 30.7382 18.0751 30.3762C18.0751 26.2218 20.2466 22.3025 23.7677 19.8452C23.6975 20.2472 23.6619 20.6567 23.6619 21.0701C23.6619 23.7402 25.1475 26.1598 27.5252 27.3777C27.5195 27.375 27.5309 27.3805 27.5252 27.3777C27.6227 27.4252 27.836 27.5433 27.9423 27.604C28.1901 27.7455 28.4889 27.7662 28.7541 27.6607C29.0192 27.5552 29.2218 27.3346 29.3045 27.0614C29.8155 25.3739 31.3801 23.3815 32.9572 22.1648C32.7689 22.8776 32.7053 23.5773 32.7679 24.2597C33.035 27.1703 33.77 28.8027 34.4186 30.2429C35.0404 31.6237 35.5316 32.7144 35.5316 34.7174C35.5316 40.9689 30.5044 46.0548 24.3252 46.0548ZM34.4439 43.0558C36.3629 40.6947 37.4066 37.779 37.4066 34.7176C37.4066 32.312 36.7856 30.9331 36.1282 29.4732C35.5112 28.1033 34.8734 26.6867 34.635 24.0885C34.5649 23.3257 34.7358 22.5047 35.1415 21.6386C35.1836 21.6679 35.2277 21.695 35.2751 21.7175C35.6022 21.8727 35.9895 21.8257 36.2699 21.5969C38.0724 20.1256 39.4112 18.2252 40.1774 16.0911C41.8107 19.8407 42.5253 23.515 42.5253 27.9468C42.5254 34.2372 39.3135 39.7909 34.4439 43.0558Z" fill="url(#paint0_linear_201_1196)"/>
<path d="M28.7279 33.4312C27.5177 32.2212 25.5558 32.2212 24.3458 33.4312C23.1357 32.2212 21.1738 32.2212 19.9637 33.4312C18.7536 34.6413 18.7536 36.6032 19.9637 37.8134L24.3459 42.1955L28.728 37.8134C29.938 36.6032 29.938 34.6413 28.7279 33.4312Z" fill="#00A3D9"/>
</g>
<defs>
<linearGradient id="paint0_linear_201_1196" x1="4.26709" y1="0" x2="44.3989" y2="0" gradientUnits="userSpaceOnUse">
<stop stop-color="#1B375E"/>
<stop offset="1" stop-color="#06638D"/>
</linearGradient>
<clipPath id="clip0_201_1196">
<rect width="48" height="48" fill="white" transform="translate(0.333496)"/>
</clipPath>
</defs>
</svg>
